<svg xmlns="http://www.w3.org/2000/svg"  viewBox="0 0 48 48" width="50px" height="50px" fill-rule="evenodd" clip-rule="evenodd" baseProfile="basic"><rect width="30.001" height="47.998" x="9" y=".002" fill="#2196f3"/><path fill="#fff" fill-rule="evenodd" d="M20,32.001	c0-2.208,1.791-4,4-4c2.208,0,4,1.792,4,4c0,2.209-1.792,4-4,4C21.791,36.001,20,34.211,20,32.001z M26,32.001c0-1.103-0.897-2-2-2	c-1.104,0-2,0.897-2,2c0,1.104,0.896,2,2,2C25.103,34.001,26,33.105,26,32.001z" clip-rule="evenodd"/><path fill="#fff" fill-rule="evenodd" d="M18.387,37.703	c-0.393-0.388-0.397-1.021-0.011-1.415c0.388-0.393,1.021-0.397,1.415-0.011c1.084,1.068,2.568,1.724,4.209,1.724	c3.311,0,6-2.688,6-6c0-3.311-2.689-6-6-6c-1.64,0-3.127,0.659-4.209,1.727c-0.393,0.387-1.027,0.383-1.415-0.011	c-0.387-0.393-0.383-1.027,0.011-1.415c1.443-1.42,3.425-2.301,5.613-2.301c4.416,0,8,3.584,8,8c0,4.417-3.584,8-8,8	C21.813,40.001,19.831,39.125,18.387,37.703z M16,32.001c0-0.784,0.112-1.547,0.325-2.269c0.157-0.529,0.715-0.831,1.244-0.675	c0.529,0.157,0.831,0.715,0.675,1.244c-0.16,0.536-0.244,1.107-0.244,1.7c0,0.552-0.449,1-1,1C16.448,33.001,16,32.553,16,32.001z" clip-rule="evenodd"/><path fill="#fff" fill-rule="evenodd" d="M16.325,34.273	C16.112,33.551,16,32.788,16,32.001c0-0.551,0.448-1,1-1c0.551,0,1,0.449,1,1c0,0.596,0.084,1.167,0.244,1.703	c0.156,0.529-0.145,1.087-0.675,1.244C17.04,35.104,16.483,34.803,16.325,34.273z" clip-rule="evenodd"/><path fill="#fff" fill-rule="evenodd" d="M12.452,35.272	c-0.603-2.135-0.603-4.405,0.001-6.541c0.149-0.532,0.703-0.841,1.233-0.691c0.532,0.149,0.841,0.703,0.691,1.233	c-0.503,1.781-0.503,3.676-0.001,5.456c0.151,0.531-0.159,1.084-0.691,1.233C13.155,36.113,12.601,35.804,12.452,35.272z" clip-rule="evenodd"/><path fill="#fff" fill-rule="evenodd" d="M25.724,42.915	c-0.136-0.535,0.188-1.079,0.723-1.215c1.795-0.456,3.436-1.404,4.725-2.728c0.385-0.395,1.019-0.404,1.415-0.019	c0.395,0.385,0.404,1.019,0.019,1.415c-1.548,1.588-3.515,2.723-5.667,3.269C26.404,43.774,25.86,43.45,25.724,42.915z" clip-rule="evenodd"/><path fill="#fff" fill-rule="evenodd" d="M31.173,25.035	c-1.291-1.327-2.932-2.275-4.724-2.731c-0.536-0.136-0.859-0.68-0.723-1.215c0.136-0.536,0.68-0.859,1.215-0.723	c2.149,0.547,4.116,1.681,5.665,3.272c0.385,0.396,0.376,1.029-0.019,1.415C32.192,25.439,31.559,25.429,31.173,25.035z" clip-rule="evenodd"/></svg>